<svg xmlns="http://www.w3.org/2000/svg" version="1.1" xmlns:xlink="http://www.w3.org/1999/xlink" xmlns:svgjs="http://svgjs.dev/svgjs" width="2000" height="1715" viewBox="0 0 2000 1715"><g transform="matrix(1,0,0,1,-1.6548463356974707,0.6943319838056823)"><svg viewBox="0 0 288 247" data-background-color="#f8f8f8" preserveAspectRatio="xMidYMid meet" height="1715" width="2000" xmlns="http://www.w3.org/2000/svg" xmlns:xlink="http://www.w3.org/1999/xlink"><g id="tight-bounds" transform="matrix(1,0,0,1,0.2382978723404392,-0.09999999999999432)"><svg viewBox="0 0 287.5234042553191 247.2" height="247.2" width="287.5234042553191"><g><svg viewBox="0 0 287.5234042553191 247.2" height="247.2" width="287.5234042553191"><g><svg viewBox="0 0 287.5234042553191 247.2" height="247.2" width="287.5234042553191"><g><svg viewBox="0 0 287.5234042553191 247.2" height="247.2" width="287.5234042553191"><g><svg viewBox="0 0 287.5234042553191 247.2" height="247.2" width="287.5234042553191"><g id="textblocktransform"><svg viewBox="0 0 287.5234042553191 247.2" height="247.2" width="287.5234042553191" id="textblock"><g><svg viewBox="0 0 287.5234042553191 247.2" height="247.2" width="287.5234042553191"><g transform="matrix(1,0,0,1,0,0)"><svg width="287.5234042553191" viewBox="2.8 -35.05 41 35.25" height="247.2" data-palette-color="#082b08"><path d="M23.6-24.55L23.6-24.55 23.7-15.3Q23.7-14.35 24.75-14.35L24.75-14.35Q27.85-14.35 29.63-16.07 31.4-17.8 31.4-20.15 31.4-22.5 29.73-24.2 28.05-25.9 24.8-25.9L24.8-25.9Q23.6-25.9 23.6-24.55ZM36.7-9.6L36.7-9.6Q37.65-8.6 43.45-2.05L43.45-2.05Q43.8-1.6 43.8-1.25L43.8-1.25Q43.8 0.05 42.65 0.05L42.65 0.05Q40 0.1 37.33 0.1 34.65 0.1 32 0.05L32 0.05Q30.55 0.05 29.35-1.1L29.35-1.1 25.05-7.6Q24.8-7.9 24.45-8L24.45-8Q23.65-8.3 23.65-7.35L23.65-7.35 23.65-2.25Q23.65-0.1 20.83 0.05 18 0.2 14.65 0.2 11.3 0.2 6.55-0.05L6.55-0.05Q5.1-0.15 4.23-1.05 3.35-1.95 3.2-3.1L3.2-3.1Q2.8-7.5 2.8-16.93 2.8-26.35 3.1-30.65 3.4-34.95 7.45-35L7.45-35Q11.25-35.05 17.8-35.05 24.35-35.05 28.65-34.95L28.65-34.95Q34.85-34.85 38.8-30.35 42.75-25.85 42.75-20.2L42.75-20.2Q42.75-16.9 41.23-14.1 39.7-11.3 36.7-9.6Z" opacity="1" transform="matrix(1,0,0,1,0,0)" fill="#082b08" class="undefined-text-0" data-fill-palette-color="primary" id="text-0"></path></svg></g></svg></g></svg></g></svg></g></svg></g></svg></g></svg></g><defs></defs></svg><rect width="287.5234042553191" height="247.2" fill="none" stroke="none" visibility="hidden"></rect></g></svg></g></svg>